<svg width="16" height="16" viewBox="0 0 16 16" fill="currentColor" xmlns="http://www.w3.org/2000/svg">
    <path fill-rule="evenodd" clip-rule="evenodd" d="M2.46967 2.47089C2.76256 2.178 3.23744 2.178 3.53033 2.47089L8 6.94056L12.4697 2.47089C12.7626 2.178 13.2374 2.178 13.5303 2.47089C13.8232 2.76378 13.8232 3.23866 13.5303 3.53155L9.06066 8.00122L13.5303 12.4709C13.8232 12.7638 13.8232 13.2387 13.5303 13.5316C13.2374 13.8244 12.7626 13.8244 12.4697 13.5316L8 9.06188L3.53033 13.5316C3.23744 13.8244 2.76256 13.8244 2.46967 13.5316C2.17678 13.2387 2.17678 12.7638 2.46967 12.4709L6.93934 8.00122L2.46967 3.53155C2.17678 3.23866 2.17678 2.76378 2.46967 2.47089Z"/>
</svg>
