<svg width="22" height="22" viewBox="0 0 22 22" fill="currentColor" xmlns="http://www.w3.org/2000/svg">
    <path d="M11.0002 20.1663C5.93755 20.1663 1.8335 16.0622 1.8335 10.9997C1.8335 5.93706 5.93755 1.83301 11.0002 1.83301C16.0627 1.83301 20.1668 5.93706 20.1668 10.9997C20.1668 16.0622 16.0627 20.1663 11.0002 20.1663ZM11.0002 18.333C15.0503 18.333 18.3335 15.0498 18.3335 10.9997C18.3335 6.94958 15.0503 3.66634 11.0002 3.66634C6.95007 3.66634 3.66683 6.94958 3.66683 10.9997C3.66683 15.0498 6.95007 18.333 11.0002 18.333ZM10.0835 13.7497H11.9168V15.583H10.0835V13.7497ZM10.0835 6.41634H11.9168V11.9163H10.0835V6.41634Z"/>
</svg>
