<svg width="90" height="22" viewBox="0 0 90 22" fill="currentColor" xmlns="http://www.w3.org/2000/svg">
    <g clip-path="url(#clip0_61_13467)">
        <path d="M15.5474 0H7.06603V11.387H18.5114V2.94886C18.5114 1.31498 17.1897 0 15.5474 0ZM4.42257 0H2.96399C1.32173 0 0 1.31498 0 2.94886V4.4H4.42257V0ZM0 7.02997H4.42257V11.43H0V7.02997ZM14.1357 18.4169H15.5942C17.2365 18.4169 18.5582 17.102 18.5582 15.4681V14.0635H14.1357V18.4169ZM7.06603 14.0635H11.4886V18.4635H7.06603V14.0635ZM0 14.0635V15.5147C0 17.1485 1.32173 18.4635 2.96399 18.4635H4.42257V14.0635H0ZM29.8199 1.17883H28.0876V17.2811H37.2533V15.7404H29.8199V1.17883ZM42.8139 5.44267C39.4394 5.44267 37.0696 7.93648 37.0696 11.5195V11.9316C37.1165 13.4723 37.8007 14.927 38.9388 16.0127C40.0336 17.0124 41.4454 17.6 42.9508 17.6H43.1777C44.7731 17.6 46.2785 17.0088 47.4634 16.0127L47.5102 15.9661L46.7359 14.6977L46.6459 14.7443C45.6879 15.6078 44.503 16.1059 43.2281 16.1059C41.1321 16.1059 38.9892 14.7443 38.8523 11.7059H47.6074V11.6163C47.6074 11.6163 47.6543 11.0717 47.6543 10.7993C47.6435 7.5316 45.7311 5.44267 42.8139 5.44267ZM38.892 10.2511C39.2557 8.2088 40.7611 6.89381 42.7203 6.89381C44.1789 6.89381 45.7743 7.75733 45.9112 10.2511H38.892ZM57.6771 6.80423V7.39544C56.946 6.17003 55.581 5.39967 54.1657 5.39967H54.0288C50.928 5.39967 48.7851 7.85049 48.7851 11.4336C48.7851 15.0632 50.8379 17.5104 53.892 17.5104C56.3085 17.5104 57.4034 16.0593 57.7671 15.4251V17.1951H59.4094V1.17883H57.7239V6.80423H57.6771ZM54.1189 16.0127C51.976 16.0127 50.5642 14.1997 50.5642 11.4765C50.5642 8.84658 52.0696 6.98697 54.1657 6.98697C55.9448 6.98697 57.7203 8.39153 57.7203 11.4765C57.7203 14.8339 55.8511 16.0127 54.1189 16.0127ZM69.3926 7.02997V7.11954C69.072 6.57492 68.0708 5.39609 65.6543 5.39609C62.6002 5.39609 60.5942 7.71075 60.5942 11.2472C60.5942 14.7837 62.6903 17.1879 65.7911 17.1879C67.4766 17.1879 68.6183 16.5967 69.3926 15.3749V16.9622C69.3926 19.1837 67.9808 20.4557 65.4706 20.4557C64.4226 20.4557 63.3277 20.1834 62.3698 19.6853L62.2797 19.6388L61.6423 21.0433L61.7323 21.0899C62.9172 21.6811 64.2389 21.9964 65.5174 21.9964C68.2077 21.9964 71.078 20.6349 71.078 16.8691V5.71498H69.3926V7.02997ZM66.018 15.6938C63.7851 15.6938 62.3265 13.9704 62.3265 11.2938C62.3265 8.57068 63.6014 7.02997 65.7911 7.02997C68.2077 7.02997 69.3457 8.43453 69.3457 11.2938C69.3926 14.1065 68.2077 15.6938 66.018 15.6938ZM77.964 5.44267C74.5894 5.44267 72.2665 7.93648 72.2665 11.4765V11.885C72.3133 13.4257 72.9976 14.8805 74.1357 15.9661C75.2305 16.9658 76.6423 17.5534 78.1477 17.5534H78.3745C79.97 17.5534 81.4754 16.9622 82.6603 15.9661L82.7071 15.9195L81.886 14.6511L81.7959 14.6977C80.8379 15.5612 79.6531 16.0593 78.3782 16.0593C76.2821 16.0593 74.1393 14.6977 74.0024 11.6593H82.7971V11.5697C82.7971 11.5697 82.8439 11.0251 82.8439 10.7528C82.8439 7.5316 80.928 5.44267 77.964 5.44267ZM74.0888 10.2511C74.4526 8.2088 75.958 6.89381 77.9172 6.89381C79.3758 6.89381 80.9712 7.75733 81.1081 10.2511H74.0888ZM89.9568 5.6684C89.7299 5.62182 89.5462 5.62182 89.3193 5.57883C87.7239 5.57883 86.4022 6.5785 85.7179 8.25537V5.6684H84.0324L84.0792 17.145V17.2345H85.8115V12.3831C85.8115 11.6557 85.9016 10.8853 86.1321 10.2046C86.6795 8.43453 87.9112 7.30228 89.3698 7.30228C89.5534 7.30228 89.7335 7.30228 89.9172 7.34886H90.0072V5.67199L89.9568 5.6684Z"/>
    </g>
    <defs>
        <clipPath id="clip0_61_13467">
            <rect width="90" height="22"/>
        </clipPath>
    </defs>
</svg>
