<svg width="97" height="40" viewBox="0 0 97 40" fill="none" xmlns="http://www.w3.org/2000/svg">
<path d="M17.9177 13.8407V8.89417H17.6271V13.8407H15.4964L12.2518 17.0273V7.51486H10.1695V0H9.87893V7.51486H7.74818V17.0273L4.50363 13.8407H2.37288V8.89417H2.08232V13.8407H0V26.635H2.08232V33.5791H2.37288V26.635H4.50363V19.1201L7.74818 22.3068V30.3924H9.87893V40H10.1695V30.3924H12.2518V22.3068L15.4964 19.1201V26.635H17.6271V33.5791H17.9177V26.635H20V13.8407H17.9177Z" fill="#2ACE61"/>
<path d="M27.8198 15.9619V19.5728H29.9512C31.1523 19.5728 31.8481 18.9062 31.8481 17.7637C31.8481 16.6504 31.1084 15.9619 29.9146 15.9619H27.8198ZM27.8198 21.0229V25H25.9302V14.4312H30.127C32.4121 14.4312 33.7817 15.6982 33.7817 17.7197C33.7817 19.1187 33.0493 20.2832 31.7896 20.7373L34.0967 25H31.9434L29.8633 21.0229H27.8198ZM41.3916 17.3535L39.231 25H37.4512L34.6167 14.4312H36.5796L38.4106 22.4365H38.4692L40.5933 14.4312H42.2632L44.3872 22.4365H44.4458L46.2769 14.4312H48.2397L45.4053 25H43.6255L41.4648 17.3535H41.3916ZM55.4102 25L54.5093 22.2681H50.6201L49.7192 25H47.771L51.521 14.4312H53.6523L57.4023 25H55.4102ZM52.5391 16.2988L51.0596 20.8105H54.0625L52.5903 16.2988H52.5391ZM61.1084 22.0264H62.9395C63.0566 23.0005 64.0308 23.6377 65.3198 23.6377C66.5942 23.6377 67.4805 23.0078 67.4805 22.1289C67.4805 21.3672 66.9385 20.9277 65.6055 20.6128L64.2358 20.2905C62.2876 19.8438 61.3647 18.9062 61.3647 17.3975C61.3647 15.5225 62.998 14.2554 65.2979 14.2554C67.627 14.2554 69.165 15.5151 69.209 17.3755H67.4072C67.3193 16.3867 66.4917 15.7935 65.2832 15.7935C64.0894 15.7935 63.2837 16.3794 63.2837 17.2583C63.2837 17.9614 63.8184 18.3716 65.1147 18.6792L66.3306 18.9575C68.4766 19.4482 69.3848 20.3345 69.3848 21.9092C69.3848 23.916 67.7734 25.1758 65.2173 25.1758C62.7856 25.1758 61.189 23.9746 61.1084 22.0264ZM71.1353 15.4199H72.959V17.2363H74.4238V18.6426H72.959V22.6782C72.959 23.3154 73.252 23.6084 73.8965 23.6084C74.0649 23.6084 74.2993 23.5938 74.4165 23.5718V24.9634C74.2188 25.0073 73.8599 25.0366 73.4717 25.0366C71.7944 25.0366 71.1353 24.4434 71.1353 22.9346V18.6426H70.022V17.2363H71.1353V15.4199ZM78.9575 25.1538C76.6797 25.1538 75.2002 23.6377 75.2002 21.1182C75.2002 18.6133 76.6943 17.0752 78.9575 17.0752C81.2207 17.0752 82.7148 18.606 82.7148 21.1182C82.7148 23.6377 81.2354 25.1538 78.9575 25.1538ZM78.9575 23.7109C80.1147 23.7109 80.8618 22.7734 80.8618 21.1182C80.8618 19.4702 80.1147 18.5254 78.9575 18.5254C77.8076 18.5254 77.0532 19.4702 77.0532 21.1182C77.0532 22.7734 77.8003 23.7109 78.9575 23.7109ZM83.8867 25V17.2363H85.6372V18.5913H85.6738C85.9375 17.6465 86.6187 17.1045 87.5342 17.1045C87.7686 17.1045 87.9736 17.1484 88.1055 17.1777V18.8257C87.9517 18.7671 87.6733 18.7231 87.3657 18.7231C86.333 18.7231 85.7104 19.3896 85.7104 20.481V25H83.8867ZM92.0972 18.4888C91.0718 18.4888 90.332 19.2725 90.2588 20.3564H93.8843C93.8477 19.2578 93.1445 18.4888 92.0972 18.4888ZM93.8916 22.6782H95.5981C95.3638 24.1431 94.0015 25.1538 92.1631 25.1538C89.834 25.1538 88.4277 23.623 88.4277 21.1475C88.4277 18.6938 89.8486 17.0752 92.0898 17.0752C94.2944 17.0752 95.6714 18.606 95.6714 20.9644V21.5576H90.2441V21.6675C90.2441 22.9126 91.0059 23.7476 92.1997 23.7476C93.0493 23.7476 93.6938 23.3228 93.8916 22.6782Z" fill="#181833"/>
</svg>
