<svg width="20" height="21" viewBox="0 0 20 21" fill="none" xmlns="http://www.w3.org/2000/svg">
<path d="M10.001 20.5012C4.47813 20.5012 0.000976562 16.024 0.000976562 10.5012C0.000976562 4.97837 4.47813 0.501221 10.001 0.501221C15.5238 0.501221 20.001 4.97837 20.001 10.5012C20.001 16.024 15.5238 20.5012 10.001 20.5012ZM6.89113 11.672L6.90378 11.664C7.48351 13.5779 7.77337 14.5349 7.77337 14.5349C7.88564 14.8454 8.04 14.9008 8.2273 14.8755C8.4145 14.8501 8.5139 14.7488 8.6361 14.6309C8.6361 14.6309 9.0324 14.2484 9.825 13.4835L12.3759 15.371C12.8407 15.6278 13.1763 15.4953 13.2917 14.9389L14.9495 7.11763C15.1325 6.38964 14.8115 6.09766 14.247 6.32876L4.51397 10.0883C3.84996 10.3552 3.85317 10.7267 4.39308 10.8923L6.89113 11.672Z" fill="white"/>
</svg>
