<svg width="26" height="26" viewBox="0 0 26 26" fill="currentColor" xmlns="http://www.w3.org/2000/svg">
    <path d="M23.8335 21.6667V23.8334H2.16683V21.6667H3.25016V14.3458C1.94367 13.4713 1.0835 11.982 1.0835 10.2917C1.0835 9.39568 1.32663 8.53264 1.76948 7.79733L4.70757 2.70841C4.90109 2.37323 5.25873 2.16675 5.64576 2.16675H20.3546C20.7416 2.16675 21.0993 2.37323 21.2928 2.70841L24.2208 7.78028C24.6737 8.53264 24.9168 9.39568 24.9168 10.2917C24.9168 11.982 24.0567 13.4713 22.7502 14.3458V21.6667H23.8335ZM6.2712 4.33341L3.63581 8.89773C3.38459 9.31505 3.25016 9.79222 3.25016 10.2917C3.25016 11.7875 4.46273 13.0001 5.9585 13.0001C7.07537 13.0001 8.06522 12.3179 8.47377 11.2987C8.83735 10.3917 10.1213 10.3917 10.4849 11.2987C10.8934 12.3179 11.8832 13.0001 13.0002 13.0001C14.1171 13.0001 15.1069 12.3179 15.5154 11.2987C15.879 10.3917 17.163 10.3917 17.5265 11.2987C17.9351 12.3179 18.9249 13.0001 20.0418 13.0001C21.5376 13.0001 22.7502 11.7875 22.7502 10.2917C22.7502 9.79222 22.6157 9.31505 22.3544 8.88066L19.7291 4.33341H6.2712Z"/>
</svg>
