<svg width="24" height="24" viewBox="0 0 24 24" fill="currentColor" xmlns="http://www.w3.org/2000/svg">
    <path fill-rule="evenodd" clip-rule="evenodd" d="M14.184 17.7069C13.6406 18.6507 13.3689 19.1226 13.0592 19.348C12.4279 19.8074 11.5724 19.8074 10.9411 19.348C10.6313 19.1226 10.3596 18.6507 9.81625 17.7069L5.52078 10.2464L5.52077 10.2464C4.76876 8.94023 4.39275 8.28716 4.33774 7.75894C4.22563 6.68236 4.81907 5.65591 5.808 5.21589C6.29321 5 7.04679 5 8.55396 5H15.4463C16.9535 5 17.7071 5 18.1923 5.21589C19.1812 5.65591 19.7746 6.68236 19.6625 7.75894C19.6075 8.28717 19.2315 8.94024 18.4795 10.2464L14.184 17.7069ZM11.1001 16.3412L6.56151 8.48002C6.32008 8.06185 6.19936 7.85276 6.18158 7.68365C6.14536 7.33896 6.33519 7.01015 6.65181 6.86919C6.80716 6.80002 7.04859 6.80002 7.53145 6.80002H7.53146L11.1001 6.80002V16.3412ZM12.9001 16.3412L17.4388 8.48002C17.6802 8.06185 17.8009 7.85276 17.8187 7.68365C17.8549 7.33896 17.6651 7.01015 17.3485 6.86919C17.1931 6.80002 16.9517 6.80002 16.4688 6.80002L12.9001 6.80002V16.3412Z"/>
</svg>
