<svg width="20" height="20" viewBox="0 0 20 20" fill="none" xmlns="http://www.w3.org/2000/svg">
    <g clip-path="url(#clip0_77_2293)">
        <path d="M10 20C15.5228 20 20 15.5228 20 10C20 4.47715 15.5228 0 10 0C4.47715 0 0 4.47715 0 10C0 15.5228 4.47715 20 10 20Z" fill="#0088CC"/>
        <path fill-rule="evenodd" clip-rule="evenodd" d="M7.21444 6.60718H12.8216C13.0359 6.60718 13.2144 6.64289 13.4287 6.75003C13.6787 6.85718 13.8216 7.03575 13.893 7.17861C13.893 7.17861 13.893 7.21432 13.9287 7.21432C14.0359 7.39289 14.1073 7.60718 14.1073 7.85718C14.1073 8.07146 14.0716 8.28575 13.9287 8.50003L10.393 14.5715C10.3216 14.7143 10.1787 14.7857 10.0002 14.7857C9.8573 14.7857 9.71444 14.7143 9.6073 14.5715L6.14301 8.50003C6.07158 8.35718 5.92872 8.17861 5.92872 7.89289C5.89301 7.64289 5.96444 7.42861 6.07158 7.21432C6.17872 7.00004 6.3573 6.82146 6.6073 6.75003C6.82158 6.60718 7.07158 6.60718 7.21444 6.60718ZM9.57158 7.46432H7.21444C7.07158 7.46432 7.00015 7.46432 6.96444 7.50003C6.89301 7.53575 6.8573 7.57146 6.82158 7.64289C6.78587 7.67861 6.78587 7.75003 6.78587 7.82146C6.78587 7.85718 6.82158 7.89289 6.89301 8.03575L9.57158 12.6786V7.46432ZM10.4287 7.46432V12.7143L13.143 8.03575C13.1787 7.96432 13.1787 7.89289 13.1787 7.82146C13.1787 7.75003 13.1787 7.67861 13.143 7.64289C13.1073 7.60718 13.1073 7.57146 13.0716 7.57146L13.0359 7.53575C12.9644 7.50003 12.893 7.50003 12.7859 7.50003H10.4287V7.46432Z" fill="white"/>
    </g>
    <defs>
        <clipPath id="clip0_77_2293">
            <rect width="20" height="20" fill="white"/>
        </clipPath>
    </defs>
</svg>
