<svg width="150" height="40" viewBox="0 0 150 40" fill="none" xmlns="http://www.w3.org/2000/svg">
<rect x="0.5" y="0.00244141" width="149" height="40" rx="12" fill="#ED2D2D"/>
<path d="M29.7439 12.0024C30.278 12.0054 31.6143 12.0183 33.0341 12.0752L33.5375 12.0971C34.967 12.1648 36.3953 12.2804 37.1037 12.4779C38.0486 12.7434 38.7913 13.5179 39.0423 14.4998C39.442 16.0589 39.492 19.1018 39.4982 19.8382L39.4991 19.9908V20.0015C39.4991 20.0015 39.4991 20.0052 39.4991 20.0123L39.4982 20.1649C39.492 20.9013 39.442 23.9443 39.0423 25.5034C38.7878 26.4888 38.0451 27.2634 37.1037 27.5252C36.3953 27.7227 34.967 27.8383 33.5375 27.906L33.0341 27.9279C31.6143 27.9848 30.278 27.9977 29.7439 28.0007L29.5095 28.0015H29.4991C29.4991 28.0015 29.4956 28.0015 29.4887 28.0015L29.2545 28.0007C28.1241 27.9945 23.3977 27.9434 21.8945 27.5252C20.9496 27.2597 20.2069 26.4852 19.9559 25.5034C19.5562 23.9443 19.5062 20.9013 19.5 20.1649V19.8382C19.5062 19.1018 19.5562 16.0589 19.9559 14.4998C20.2104 13.5143 20.9531 12.7398 21.8945 12.4779C23.3977 12.0597 28.1241 12.0087 29.2545 12.0024H29.7439ZM27.4991 16.5016V23.5015L33.4991 20.0015L27.4991 16.5016Z" fill="white"/>
<path d="M53.1396 25.0024H51.1162L47.6846 15.1382H49.626L52.1279 23.1089H52.1689L54.6709 15.1382H56.5713L53.1396 25.0024ZM57.3574 25.0024V17.7563H59.0596V25.0024H57.3574ZM58.2051 16.8062C57.6787 16.8062 57.2617 16.396 57.2617 15.8833C57.2617 15.3638 57.6787 14.9536 58.2051 14.9536C58.7383 14.9536 59.1553 15.3638 59.1553 15.8833C59.1553 16.396 58.7383 16.8062 58.2051 16.8062ZM63.1953 25.1187C61.3701 25.1187 60.1875 23.6763 60.1875 21.3726C60.1875 19.0825 61.3701 17.6333 63.1953 17.6333C64.2344 17.6333 65.0547 18.1733 65.4375 18.9731H65.4785V15.1382H67.1807V25.0024H65.5127V23.7651H65.4854C65.0889 24.5786 64.2549 25.1187 63.1953 25.1187ZM63.708 19.0347C62.6143 19.0347 61.9307 19.9438 61.9307 21.3794C61.9307 22.8218 62.6074 23.7241 63.708 23.7241C64.7812 23.7241 65.4854 22.8149 65.4854 21.3794C65.4854 19.9575 64.7812 19.0347 63.708 19.0347ZM71.7334 18.9253C70.7764 18.9253 70.0859 19.6567 70.0176 20.6685H73.4014C73.3672 19.6431 72.7109 18.9253 71.7334 18.9253ZM73.4082 22.8354H75.001C74.7822 24.2026 73.5107 25.146 71.7949 25.146C69.6211 25.146 68.3086 23.7173 68.3086 21.4067C68.3086 19.1167 69.6348 17.606 71.7266 17.606C73.7842 17.606 75.0693 19.0347 75.0693 21.2358V21.7896H70.0039V21.8921C70.0039 23.0542 70.7148 23.8335 71.8291 23.8335C72.6221 23.8335 73.2236 23.437 73.4082 22.8354ZM79.376 25.146C77.25 25.146 75.8691 23.731 75.8691 21.3794C75.8691 19.0415 77.2637 17.606 79.376 17.606C81.4883 17.606 82.8828 19.0347 82.8828 21.3794C82.8828 23.731 81.502 25.146 79.376 25.146ZM79.376 23.7993C80.4561 23.7993 81.1533 22.9243 81.1533 21.3794C81.1533 19.8413 80.4561 18.9595 79.376 18.9595C78.3027 18.9595 77.5986 19.8413 77.5986 21.3794C77.5986 22.9243 78.2959 23.7993 79.376 23.7993ZM91.1201 25.0024H89.3633V16.6284H86.4102V15.1382H94.0664V16.6284H91.1201V25.0024ZM100.396 17.7563V25.0024H98.7559V23.7446H98.7217C98.3389 24.6265 97.6074 25.1323 96.5068 25.1323C94.9346 25.1323 93.9365 24.1138 93.9365 22.439V17.7563H95.6387V22.0972C95.6387 23.1362 96.1445 23.6968 97.1016 23.6968C98.0859 23.6968 98.6943 22.9995 98.6943 21.9468V17.7563H100.396ZM102.263 16.061H103.965V17.7563H105.332V19.0688H103.965V22.8354C103.965 23.4302 104.238 23.7036 104.84 23.7036C104.997 23.7036 105.216 23.6899 105.325 23.6694V24.9683C105.141 25.0093 104.806 25.0366 104.443 25.0366C102.878 25.0366 102.263 24.4829 102.263 23.0747V19.0688H101.224V17.7563H102.263V16.061ZM109.563 25.146C107.438 25.146 106.057 23.731 106.057 21.3794C106.057 19.0415 107.451 17.606 109.563 17.606C111.676 17.606 113.07 19.0347 113.07 21.3794C113.07 23.731 111.689 25.146 109.563 25.146ZM109.563 23.7993C110.644 23.7993 111.341 22.9243 111.341 21.3794C111.341 19.8413 110.644 18.9595 109.563 18.9595C108.49 18.9595 107.786 19.8413 107.786 21.3794C107.786 22.9243 108.483 23.7993 109.563 23.7993ZM114.164 25.0024V17.7563H115.798V19.021H115.832C116.078 18.1392 116.714 17.6333 117.568 17.6333C117.787 17.6333 117.979 17.6743 118.102 17.7017V19.2397C117.958 19.1851 117.698 19.144 117.411 19.144C116.447 19.144 115.866 19.7661 115.866 20.7847V25.0024H114.164ZM119.018 25.0024V17.7563H120.72V25.0024H119.018ZM119.865 16.8062C119.339 16.8062 118.922 16.396 118.922 15.8833C118.922 15.3638 119.339 14.9536 119.865 14.9536C120.398 14.9536 120.815 15.3638 120.815 15.8833C120.815 16.396 120.398 16.8062 119.865 16.8062ZM124.794 23.8335C125.758 23.8335 126.53 23.1909 126.53 22.3159V21.7622L124.855 21.8647C124.035 21.9194 123.563 22.2886 123.563 22.8628C123.563 23.4575 124.056 23.8335 124.794 23.8335ZM124.281 25.1187C122.88 25.1187 121.861 24.2368 121.861 22.9312C121.861 21.646 122.853 20.8735 124.616 20.7642L126.53 20.6548V20.1353C126.53 19.3765 126.018 18.939 125.177 18.939C124.37 18.939 123.857 19.3286 123.748 19.9302H122.169C122.244 18.5767 123.399 17.606 125.245 17.606C127.043 17.606 128.212 18.5562 128.212 20.0122V25.0024H126.571V23.8472H126.537C126.12 24.6333 125.211 25.1187 124.281 25.1187ZM129.634 25.0024V15.1382H131.336V25.0024H129.634Z" fill="white"/>
</svg>
